<svg width="15" height="15" viewBox="0 0 15 15" fill="none" xmlns="http://www.w3.org/2000/svg">
<path d="M11.8064 11.9632C10.9996 11.9632 10.3527 12.6101 10.3527 13.4169C10.3527 13.7044 10.438 13.9855 10.5977 14.2245C10.7575 14.4636 10.9845 14.6499 11.2501 14.7599C11.5158 14.87 11.8081 14.8988 12.09 14.8427C12.372 14.7866 12.6311 14.6481 12.8344 14.4448C13.0377 14.2415 13.1761 13.9825 13.2322 13.7005C13.2883 13.4185 13.2595 13.1262 13.1495 12.8606C13.0395 12.595 12.8531 12.3679 12.6141 12.2082C12.375 12.0484 12.094 11.9632 11.8064 11.9632ZM0.176758 0.333496V1.78721H1.63047L4.24715 7.30404L3.25862 9.08484C3.1496 9.28835 3.08418 9.52822 3.08418 9.78262C3.08418 10.1682 3.23734 10.5379 3.50996 10.8105C3.78259 11.0832 4.15234 11.2363 4.53789 11.2363H13.2602V9.78262H4.84317C4.79498 9.78262 4.74876 9.76347 4.71468 9.72939C4.6806 9.69532 4.66146 9.6491 4.66146 9.6009C4.66146 9.56456 4.66872 9.53549 4.68326 9.51368L5.33743 8.32891H10.7525C11.2976 8.32891 11.7774 8.02363 12.0245 7.58025L14.6266 2.87749C14.6775 2.76119 14.7139 2.63763 14.7139 2.51406C14.7139 2.32129 14.6373 2.13641 14.501 2.0001C14.3647 1.86379 14.1798 1.78721 13.987 1.78721H3.23682L2.55358 0.333496L0.176758 0.333496ZM4.53789 11.9632C3.73108 11.9632 3.08418 12.6101 3.08418 13.4169C3.08418 13.7044 3.16944 13.9855 3.32917 14.2245C3.48891 14.4636 3.71595 14.6499 3.98158 14.7599C4.24721 14.87 4.5395 14.8988 4.8215 14.8427C5.10349 14.7866 5.36251 14.6481 5.56582 14.4448C5.76912 14.2415 5.90758 13.9825 5.96367 13.7005C6.01976 13.4185 5.99097 13.1262 5.88094 12.8606C5.77092 12.595 5.58459 12.3679 5.34553 12.2082C5.10647 12.0484 4.82541 11.9632 4.53789 11.9632Z" fill="white"/>
</svg>
